Eczar-Regular.ufo
<glyph name="quotesingle" format="1">
  <advance width="169"/>
  <unicode hex="0027"/>
  <outline>
    <contour>
      <point x="-21" y="525" type="curve"/>
      <point x="44" y="504" type="line"/>
      <point x="85" y="577"/>
      <point x="110" y="651"/>
      <point x="119" y="728" type="curve"/>
      <point x="47" y="744" type="line"/>
      <point x="20" y="724" type="line"/>
      <point x="18" y="689"/>
      <point x="14" y="621"/>
    </contour>
  </outline>
</glyph>
<glyph name="period" format="1">
  <advance width="200"/>
  <unicode hex="002E"/>
  <outline>
    <contour>
      <point x="148" y="-33" type="curve"/>
      <point x="169" y="-19"/>
      <point x="191" y="9"/>
      <point x="200" y="33" type="curve"/>
      <point x="187" y="50"/>
      <point x="159" y="76"/>
      <point x="135" y="85" type="curve"/>
      <point x="115" y="73"/>
      <point x="94" y="45"/>
      <point x="81" y="19" type="curve"/>
      <point x="95" y="-1"/>
      <point x="127" y="-25"/>
    </contour>
  </outline>
</glyph>
<glyph name="slash" format="1">
  <advance width="403"/>
  <unicode hex="002F"/>
  <outline>
    <contour>
      <point x="33" y="-100" type="line"/>
      <point x="97" y="-125" type="line"/>
      <point x="403" y="680" type="line"/>
      <point x="340" y="707" type="line"/>
    </contour>
  </outline>
</glyph>
<glyph name="colon" format="1">
  <advance width="218"/>
  <unicode hex="003A"/>
  <outline>
    <contour>
      <point x="157" y="287" type="curve"/>
      <point x="187" y="301"/>
      <point x="208" y="325"/>
      <point x="218" y="359" type="curve"/>
      <point x="212" y="391"/>
      <point x="185" y="416"/>
      <point x="145" y="431" type="curve"/>
      <point x="109" y="413"/>
      <point x="87" y="386"/>
      <point x="81" y="348" type="curve"/>
      <point x="95" y="315"/>
      <point x="121" y="294"/>
    </contour>
    <contour>
      <point x="157" y="-20" type="curve"/>
      <point x="187" y="-6"/>
      <point x="208" y="18"/>
      <point x="218" y="52" type="curve"/>
      <point x="212" y="84"/>
      <point x="185" y="109"/>
      <point x="145" y="124" type="curve"/>
      <point x="109" y="106"/>
      <point x="87" y="79"/>
      <point x="81" y="41" type="curve"/>
      <point x="95" y="8"/>
      <point x="121" y="-13"/>
    </contour>
  </outline>
</glyph>
<glyph name="J" format="1">
  <advance width="347"/>
  <unicode hex="004A"/>
  <outline>
    <contour>
      <point x="-4" y="-131" type="curve"/>
      <point x="32" y="-182" type="line"/>
      <point x="131" y="-124"/>
      <point x="232" y="-47"/>
      <point x="232" y="81" type="curve"/>
      <point x="232" y="650" type="line"/>
      <point x="139" y="650" type="line"/>
      <point x="139" y="128" type="line" smooth="yes"/>
      <point x="139" y="-16"/>
      <point x="80" y="-78"/>
    </contour>
    <contour>
      <point x="42" y="603" type="line"/>
      <point x="180" y="587" type="line"/>
      <point x="183" y="650" type="line"/>
      <point x="43" y="650" type="line"/>
    </contour>
    <contour>
      <point x="217" y="650" type="line"/>
      <point x="218" y="583" type="line"/>
      <point x="251" y="593"/>
      <point x="287" y="604"/>
      <point x="317" y="618" type="curve"/>
      <point x="311" y="650" type="line"/>
    </contour>
    <contour>
      <point x="184" y="650" type="move" name="top"/>
    </contour>
  </outline>
</glyph>
<glyph name="O" format="1">
  <advance width="652"/>
  <unicode hex="004F"/>
  <outline>
    <contour>
      <point x="329" y="-20" type="curve"/>
      <point x="480" y="-20"/>
      <point x="632" y="87"/>
      <point x="632" y="317" type="curve"/>
      <point x="632" y="544"/>
      <point x="485" y="670"/>
      <point x="321" y="670" type="curve"/>
      <point x="149" y="670"/>
      <point x="20" y="530"/>
      <point x="20" y="321" type="curve"/>
      <point x="20" y="92"/>
      <point x="175" y="-20"/>
    </contour>
    <contour>
      <point x="347" y="51" type="curve"/>
      <point x="188" y="51"/>
      <point x="122" y="193"/>
      <point x="122" y="335" type="curve"/>
      <point x="122" y="440"/>
      <point x="158" y="542"/>
      <point x="213" y="584" type="curve"/>
      <point x="248" y="596"/>
      <point x="280" y="601"/>
      <point x="309" y="601" type="curve"/>
      <point x="460" y="601"/>
      <point x="529" y="458"/>
      <point x="529" y="312" type="curve"/>
      <point x="529" y="197"/>
      <point x="486" y="101"/>
      <point x="424" y="61" type="curve"/>
      <point x="396" y="54"/>
      <point x="371" y="51"/>
    </contour>
    <contour>
      <point x="324" y="650" type="move" name="top"/>
    </contour>
  </outline>
</glyph>
<glyph name="b" format="1">
  <advance width="520"/>
  <unicode hex="0062"/>
  <outline>
    <contour>
      <point x="237" y="-19" type="curve"/>
      <point x="388" y="-19"/>
      <point x="495" y="96"/>
      <point x="495" y="250" type="curve"/>
      <point x="495" y="390"/>
      <point x="406" y="509"/>
      <point x="273" y="481" type="curve"/>
      <point x="118" y="383" type="line"/>
      <point x="127" y="334" type="line"/>
      <point x="178" y="370"/>
      <point x="230" y="403"/>
      <point x="278" y="403" type="curve"/>
      <point x="352" y="403"/>
      <point x="401" y="320"/>
      <point x="401" y="230" type="curve"/>
      <point x="401" y="158"/>
      <point x="370" y="83"/>
      <point x="316" y="50" type="curve"/>
      <point x="213" y="34"/>
      <point x="143" y="84"/>
      <point x="128" y="113" type="curve"/>
      <point x="66" y="24" type="line"/>
      <point x="127" y="-4"/>
      <point x="183" y="-19"/>
    </contour>
    <contour>
      <point x="66" y="698" type="line"/>
      <point x="66" y="24" type="line"/>
      <point x="155" y="47" type="line"/>
      <point x="155" y="699" type="line"/>
      <point x="116" y="735" type="line"/>
    </contour>
    <contour>
      <point x="-20" y="704" type="curve"/>
      <point x="-8" y="657" type="line"/>
      <point x="85" y="664" type="line"/>
      <point x="129" y="710" type="line"/>
      <point x="116" y="735" type="line"/>
      <point x="74" y="734"/>
      <point x="20" y="722"/>
    </contour>
  </outline>
</glyph>
<glyph name="paragraph" format="1">
  <advance width="610"/>
  <unicode hex="00B6"/>
  <outline>
    <contour>
      <point x="158" y="289" type="curve"/>
      <point x="196" y="326" type="line"/>
      <point x="156" y="375"/>
      <point x="139" y="408"/>
      <point x="139" y="457" type="curve"/>
      <point x="139" y="578"/>
      <point x="240" y="614"/>
      <point x="378" y="604" type="curve"/>
      <point x="553" y="589" type="line"/>
      <point x="560" y="646" type="line"/>
      <point x="291" y="684" type="line"/>
      <point x="92" y="697"/>
      <point x="0" y="590"/>
      <point x="0" y="483" type="curve"/>
      <point x="0" y="401"/>
      <point x="55" y="324"/>
    </contour>
    <contour>
      <point x="150" y="-130" type="curve"/>
      <point x="156" y="-165" type="line"/>
      <point x="280" y="-165" type="line"/>
      <point x="280" y="-91" type="line"/>
      <point x="280" y="-91"/>
      <point x="198" y="-108"/>
    </contour>
    <contour>
      <point x="437" y="-102" type="line"/>
      <point x="434" y="-165" type="line"/>
      <point x="574" y="-165" type="line"/>
      <point x="575" y="-118" type="line"/>
    </contour>
    <contour>
      <point x="268" y="609" type="line"/>
      <point x="268" y="-165" type="line"/>
      <point x="333" y="-165" type="line"/>
      <point x="333" y="609" type="line"/>
    </contour>
    <contour>
      <point x="413" y="609" type="line"/>
      <point x="413" y="-165" type="line"/>
      <point x="478" y="-165" type="line"/>
      <point x="478" y="609" type="line"/>
    </contour>
  </outline>
</glyph>
<glyph name="AE" format="1">
  <advance width="879"/>
  <unicode hex="00C6"/>
  <outline>
    <contour>
      <point x="387" y="647" type="line"/>
      <point x="37" y="0" type="line"/>
      <point x="117" y="0" type="line"/>
      <point x="444" y="622" type="line"/>
    </contour>
    <contour>
      <point x="-20" y="35" type="curve"/>
      <point x="-14" y="0" type="line"/>
      <point x="80" y="0" type="line"/>
      <point x="79" y="70" type="line"/>
      <point x="79" y="70"/>
      <point x="7" y="49"/>
    </contour>
    <contour>
      <point x="107" y="63" type="line"/>
      <point x="104" y="0" type="line"/>
      <point x="244" y="0" type="line"/>
      <point x="245" y="47" type="line"/>
    </contour>
    <contour>
      <point x="346" y="35" type="curve"/>
      <point x="352" y="0" type="line"/>
      <point x="446" y="0" type="line"/>
      <point x="445" y="70" type="line"/>
      <point x="445" y="70"/>
      <point x="373" y="49"/>
    </contour>
    <contour>
      <point x="223" y="262" type="line"/>
      <point x="223" y="201" type="line"/>
      <point x="514" y="201" type="line"/>
      <point x="514" y="262" type="line"/>
    </contour>
    <contour>
      <point x="500" y="64" type="line"/>
      <point x="425" y="0" type="line"/>
      <point x="818" y="0" type="line"/>
      <point x="801" y="77" type="line"/>
    </contour>
    <contour>
      <point x="431" y="650" type="line"/>
      <point x="431" y="0" type="line"/>
      <point x="524" y="0" type="line"/>
      <point x="524" y="650" type="line"/>
    </contour>
    <contour>
      <point x="743" y="40" type="line"/>
      <point x="818" y="0" type="line"/>
      <point x="826" y="43"/>
      <point x="832" y="126"/>
      <point x="830" y="179" type="curve"/>
      <point x="777" y="183" type="line"/>
    </contour>
    <contour>
      <point x="513" y="294" type="line"/>
      <point x="753" y="284" type="line"/>
      <point x="753" y="371" type="line"/>
      <point x="513" y="353" type="line"/>
    </contour>
    <contour>
      <point x="306" y="602" type="line"/>
      <point x="402" y="596" type="line"/>
      <point x="462" y="650" type="line"/>
      <point x="307" y="650" type="line"/>
    </contour>
    <contour>
      <point x="500" y="586" type="line"/>
      <point x="801" y="573" type="line"/>
      <point x="818" y="650" type="line"/>
      <point x="425" y="650" type="line"/>
    </contour>
    <contour>
      <point x="738" y="605" type="line"/>
      <point x="754" y="485" type="line"/>
      <point x="808" y="485" type="line"/>
      <point x="819" y="546"/>
      <point x="821" y="617"/>
      <point x="818" y="650" type="curve"/>
    </contour>
    <contour>
      <point x="504" y="650" type="move" name="top"/>
    </contour>
  </outline>
</glyph>
<glyph name="firsttonechinese" format="1">
  <advance width="0"/>
  <unicode hex="02C9"/>
  <outline>
    <component base="macroncomb"/>
    <contour>
      <point x="1" y="468" type="move" name="_top"/>
    </contour>
  </outline>
</glyph>
<glyph name="cedillacomb" format="1">
  <advance width="0"/>
  <unicode hex="0327"/>
  <outline>
    <contour>
      <point x="-79" y="-231" type="curve"/>
      <point x="-66" y="-265" type="line"/>
      <point x="40" y="-243"/>
      <point x="100" y="-208"/>
      <point x="110" y="-157" type="curve"/>
      <point x="119" y="-113"/>
      <point x="84" y="-59"/>
      <point x="-5" y="-59" type="curve"/>
      <point x="37" y="6" type="line"/>
      <point x="-12" y="6" type="line"/>
      <point x="-75" y="-66" type="line"/>
      <point x="-48" y="-105" type="line"/>
      <point x="66" y="-96"/>
      <point x="55" y="-190"/>
    </contour>
    <contour>
      <point x="0" y="0" type="move" name="_bottom"/>
    </contour>
  </outline>
</glyph>
<glyph name="tonos" format="1">
  <advance width="365"/>
  <unicode hex="0384"/>
  <outline>
    <contour>
      <point x="110" y="546" type="line"/>
      <point x="145" y="529" type="line"/>
      <point x="255" y="714" type="line"/>
      <point x="255" y="732" type="line"/>
      <point x="234" y="750"/>
      <point x="206" y="764"/>
      <point x="174" y="765" type="curve"/>
    </contour>
    <contour>
      <point x="150" y="468" type="move" name="_top"/>
    </contour>
  </outline>
</glyph>
<glyph name="dieresistonos" format="1">
  <advance width="365"/>
  <unicode hex="0385"/>
  <outline>
    <contour>
      <point x="140" y="542" type="line"/>
      <point x="177" y="530" type="line"/>
      <point x="260" y="724" type="line"/>
      <point x="258" y="742" type="line"/>
      <point x="233" y="758"/>
      <point x="203" y="766"/>
      <point x="173" y="764" type="curve"/>
    </contour>
    <contour>
      <point x="55" y="551" type="curve"/>
      <point x="83" y="563"/>
      <point x="100" y="584"/>
      <point x="108" y="614" type="curve"/>
      <point x="102" y="644"/>
      <point x="76" y="666"/>
      <point x="45" y="677" type="curve"/>
      <point x="17" y="663"/>
      <point x="-7" y="638"/>
      <point x="-10" y="604" type="curve"/>
      <point x="2" y="576"/>
      <point x="23" y="559"/>
    </contour>
    <contour>
      <point x="322" y="551" type="curve"/>
      <point x="350" y="563"/>
      <point x="367" y="584"/>
      <point x="375" y="614" type="curve"/>
      <point x="369" y="644"/>
      <point x="343" y="666"/>
      <point x="312" y="677" type="curve"/>
      <point x="284" y="663"/>
      <point x="260" y="638"/>
      <point x="257" y="604" type="curve"/>
      <point x="269" y="576"/>
      <point x="290" y="559"/>
    </contour>
    <contour>
      <point x="182" y="468" type="move" name="_top"/>
    </contour>
  </outline>
</glyph>
<glyph name="Alpha" format="1">
  <advance width="696"/>
  <unicode hex="0391"/>
  <outline>
    <component base="A"/>
    <contour>
      <point x="331" y="0" type="move" name="bottom"/>
    </contour>
    <contour>
      <point x="78" y="343" type="move" name="left"/>
    </contour>
    <contour>
      <point x="334" y="650" type="move" name="top"/>
    </contour>
  </outline>
</glyph>
<glyph name="Gamma" format="1">
  <advance width="516"/>
  <unicode hex="0393"/>
  <outline>
    <contour>
      <point x="115" y="650" type="line"/>
      <point x="115" y="0" type="line"/>
      <point x="208" y="0" type="line"/>
      <point x="208" y="650" type="line"/>
    </contour>
    <contour>
      <point x="30" y="32" type="curve"/>
      <point x="36" y="0" type="line"/>
      <point x="130" y="0" type="line"/>
      <point x="129" y="67" type="line"/>
      <point x="96" y="57"/>
      <point x="60" y="46"/>
    </contour>
    <contour>
      <point x="187" y="63" type="line"/>
      <point x="184" y="0" type="line"/>
      <point x="324" y="0" type="line"/>
      <point x="325" y="47" type="line"/>
    </contour>
    <contour>
      <point x="44" y="602" type="line"/>
      <point x="140" y="596" type="line"/>
      <point x="138" y="650" type="line"/>
      <point x="45" y="650" type="line"/>
    </contour>
    <contour>
      <point x="184" y="594" type="line"/>
      <point x="480" y="573" type="line"/>
      <point x="497" y="650" type="line"/>
      <point x="109" y="650" type="line"/>
    </contour>
    <contour>
      <point x="420" y="605" type="line"/>
      <point x="433" y="476" type="line"/>
      <point x="487" y="476" type="line"/>
      <point x="499" y="541"/>
      <point x="500" y="615"/>
      <point x="497" y="650" type="curve"/>
    </contour>
  </outline>
</glyph>
<glyph name="Eta" format="1">
  <advance width="751"/>
  <unicode hex="0397"/>
  <outline>
    <component base="H"/>
    <contour>
      <point x="379" y="0" type="move" name="bottom"/>
    </contour>
    <contour>
      <point x="-112" y="343" type="move" name="left"/>
    </contour>
  </outline>
</glyph>
<glyph name="Lamda" format="1">
  <advance width="696"/>
  <unicode hex="039B"/>
  <outline>
    <contour>
      <point x="290" y="647" type="line"/>
      <point x="545" y="0" type="line"/>
      <point x="646" y="0" type="line"/>
      <point x="369" y="674" type="line"/>
    </contour>
    <contour>
      <point x="-20" y="32" type="curve"/>
      <point x="-14" y="0" type="line"/>
      <point x="80" y="0" type="line"/>
      <point x="79" y="67" type="line"/>
      <point x="46" y="57"/>
      <point x="10" y="46"/>
    </contour>
    <contour>
      <point x="107" y="63" type="line"/>
      <point x="104" y="0" type="line"/>
      <point x="244" y="0" type="line"/>
      <point x="245" y="47" type="line"/>
    </contour>
    <contour>
      <point x="300" y="637" type="line"/>
      <point x="37" y="0" type="line"/>
      <point x="117" y="0" type="line"/>
      <point x="357" y="612" type="line"/>
    </contour>
    <contour>
      <point x="421" y="32" type="curve"/>
      <point x="427" y="0" type="line"/>
      <point x="573" y="0" type="line"/>
      <point x="520" y="67" type="line"/>
      <point x="487" y="57"/>
      <point x="451" y="46"/>
    </contour>
    <contour>
      <point x="558" y="63" type="line"/>
      <point x="555" y="0" type="line"/>
      <point x="695" y="0" type="line"/>
      <point x="696" y="47" type="line"/>
    </contour>
  </outline>
</glyph>
<glyph name="Pi" format="1">
  <advance width="743"/>
  <unicode hex="03A0"/>
  <outline>
    <contour>
      <point x="523" y="650" type="line"/>
      <point x="523" y="0" type="line"/>
      <point x="616" y="0" type="line"/>
      <point x="616" y="650" type="line"/>
    </contour>
    <contour>
      <point x="30" y="32" type="curve"/>
      <point x="36" y="0" type="line"/>
      <point x="130" y="0" type="line"/>
      <point x="129" y="67" type="line"/>
      <point x="96" y="57"/>
      <point x="60" y="46"/>
    </contour>
    <contour>
      <point x="167" y="63" type="line"/>
      <point x="164" y="0" type="line"/>
      <point x="304" y="0" type="line"/>
      <point x="305" y="47" type="line"/>
    </contour>
    <contour>
      <point x="115" y="650" type="line"/>
      <point x="115" y="0" type="line"/>
      <point x="208" y="0" type="line"/>
      <point x="208" y="650" type="line"/>
    </contour>
    <contour>
      <point x="438" y="32" type="curve"/>
      <point x="444" y="0" type="line"/>
      <point x="538" y="0" type="line"/>
      <point x="537" y="67" type="line"/>
      <point x="504" y="57"/>
      <point x="468" y="46"/>
    </contour>
    <contour>
      <point x="575" y="63" type="line"/>
      <point x="572" y="0" type="line"/>
      <point x="712" y="0" type="line"/>
      <point x="713" y="47" type="line"/>
    </contour>
    <contour>
      <point x="38" y="603" type="line"/>
      <point x="176" y="587" type="line"/>
      <point x="179" y="650" type="line"/>
      <point x="39" y="650" type="line"/>
    </contour>
    <contour>
      <point x="158" y="650" type="line"/>
      <point x="158" y="583" type="line"/>
      <point x="540" y="583" type="line"/>
      <point x="540" y="650" type="line"/>
    </contour>
    <contour>
      <point x="601" y="650" type="line"/>
      <point x="602" y="583" type="line"/>
      <point x="635" y="593"/>
      <point x="671" y="604"/>
      <point x="701" y="618" type="curve"/>
      <point x="695" y="650" type="line"/>
    </contour>
  </outline>
</glyph>
<glyph name="Phi" format="1">
  <advance width="691"/>
  <unicode hex="03A6"/>
  <outline>
    <contour>
      <point x="363" y="151" type="curve"/>
      <point x="351" y="94" type="line"/>
      <point x="545" y="94"/>
      <point x="671" y="191"/>
      <point x="671" y="339" type="curve"/>
      <point x="671" y="477"/>
      <point x="552" y="563"/>
      <point x="360" y="563" type="curve"/>
      <point x="348" y="506" type="line"/>
      <point x="484" y="506"/>
      <point x="569" y="435"/>
      <point x="569" y="324" type="curve"/>
      <point x="569" y="264"/>
      <point x="550" y="215"/>
      <point x="515" y="181" type="curve"/>
      <point x="481" y="162"/>
      <point x="425" y="151"/>
    </contour>
    <contour>
      <point x="212" y="24" type="curve"/>
      <point x="218" y="-8" type="line"/>
      <point x="312" y="-8" type="line"/>
      <point x="311" y="59" type="line"/>
      <point x="263" y="44"/>
      <point x="236" y="34"/>
    </contour>
    <contour>
      <point x="353" y="55" type="line"/>
      <point x="350" y="-8" type="line"/>
      <point x="490" y="-8" type="line"/>
      <point x="491" y="39" type="line"/>
    </contour>
    <contour>
      <point x="331" y="94" type="curve"/>
      <point x="343" y="151" type="line"/>
      <point x="207" y="151"/>
      <point x="122" y="222"/>
      <point x="122" y="333" type="curve"/>
      <point x="122" y="393"/>
      <point x="141" y="442"/>
      <point x="176" y="476" type="curve"/>
      <point x="210" y="495"/>
      <point x="266" y="506"/>
      <point x="328" y="506" type="curve"/>
      <point x="340" y="563" type="line"/>
      <point x="146" y="563"/>
      <point x="20" y="466"/>
      <point x="20" y="318" type="curve"/>
      <point x="20" y="180"/>
      <point x="139" y="94"/>
    </contour>
    <contour>
      <point x="301" y="660" type="line"/>
      <point x="301" y="-8" type="line"/>
      <point x="390" y="-8" type="line"/>
      <point x="390" y="660" type="line"/>
    </contour>
    <contour>
      <point x="220" y="613" type="line"/>
      <point x="358" y="597" type="line"/>
      <point x="361" y="660" type="line"/>
      <point x="221" y="660" type="line"/>
    </contour>
    <contour>
      <point x="379" y="660" type="line"/>
      <point x="380" y="593" type="line"/>
      <point x="428" y="608"/>
      <point x="455" y="618"/>
      <point x="479" y="628" type="curve"/>
      <point x="473" y="660" type="line"/>
    </contour>
  </outline>
</glyph>
<glyph name="theta" format="1">
  <advance width="504"/>
  <unicode hex="03B8"/>
  <outline>
    <contour>
      <point x="244" y="-20" type="curve"/>
      <point x="381" y="-20"/>
      <point x="468" y="126"/>
      <point x="468" y="358" type="curve"/>
      <point x="468" y="600"/>
      <point x="394" y="735"/>
      <point x="260" y="735" type="curve"/>
      <point x="123" y="735"/>
      <point x="36" y="589"/>
      <point x="36" y="357" type="curve"/>
      <point x="36" y="115"/>
      <point x="110" y="-20"/>
    </contour>
    <contour>
      <point x="221" y="70" type="curve"/>
      <point x="187" y="70"/>
      <point x="153" y="81"/>
      <point x="138" y="96" type="curve"/>
      <point x="115" y="150"/>
      <point x="104" y="215"/>
      <point x="104" y="303" type="curve"/>
      <point x="104" y="524"/>
      <point x="170" y="645"/>
      <point x="283" y="645" type="curve"/>
      <point x="317" y="645"/>
      <point x="351" y="634"/>
      <point x="366" y="619" type="curve"/>
      <point x="389" y="565"/>
      <point x="400" y="500"/>
      <point x="400" y="412" type="curve"/>
      <point x="400" y="191"/>
      <point x="334" y="70"/>
    </contour>
    <contour>
      <point x="79" y="333" type="line"/>
      <point x="423" y="321" type="line"/>
      <point x="426" y="406" type="line"/>
      <point x="82" y="379" type="line"/>
    </contour>
  </outline>
</glyph>
<glyph name="kappa" format="1">
  <advance width="491"/>
  <unicode hex="03BA"/>
  <outline>
    <contour>
      <point x="147" y="-10" type="curve"/>
      <point x="183" y="90"/>
      <point x="235" y="192"/>
      <point x="273" y="240" type="curve"/>
      <point x="320" y="298"/>
      <point x="378" y="347"/>
      <point x="448" y="388" type="curve"/>
      <point x="461" y="410" type="line"/>
      <point x="453" y="442"/>
      <point x="434" y="475"/>
      <point x="419" y="484" type="curve"/>
      <point x="349" y="448"/>
      <point x="285" y="388"/>
      <point x="231" y="309" type="curve"/>
      <point x="190" y="249"/>
      <point x="147" y="157"/>
      <point x="108" y="48" type="curve"/>
      <point x="117" y="51" type="line"/>
      <point x="160" y="468" type="line"/>
      <point x="139" y="480" type="line"/>
      <point x="94" y="479"/>
      <point x="64" y="472"/>
      <point x="45" y="458" type="curve"/>
      <point x="62" y="301" type="line"/>
      <point x="69" y="1" type="line"/>
      <point x="83" y="-9"/>
      <point x="118" y="-14"/>
    </contour>
    <contour>
      <point x="388" y="-14" type="curve"/>
      <point x="425" y="-14"/>
      <point x="466" y="22"/>
      <point x="478" y="66" type="curve"/>
      <point x="465" y="95" type="line"/>
      <point x="329" y="80" type="line"/>
      <point x="365" y="71" type="line"/>
      <point x="338" y="126"/>
      <point x="308" y="213"/>
      <point x="289" y="288" type="curve"/>
      <point x="226" y="246" type="line"/>
      <point x="316" y="58" type="line" smooth="yes"/>
      <point x="341" y="7"/>
      <point x="362" y="-14"/>
    </contour>
  </outline>
</glyph>
<glyph name="lamda" format="1">
  <advance width="503"/>
  <unicode hex="03BB"/>
  <outline>
    <contour>
      <point x="439" y="-14" type="curve"/>
      <point x="474" y="-14"/>
      <point x="510" y="18"/>
      <point x="528" y="66" type="curve"/>
      <point x="515" y="95" type="line"/>
      <point x="380" y="80" type="line"/>
      <point x="418" y="54" type="line"/>
      <point x="286" y="522" type="line" smooth="yes"/>
      <point x="242" y="678"/>
      <point x="194" y="735"/>
      <point x="106" y="735" type="curve"/>
      <point x="86" y="735"/>
      <point x="59" y="731"/>
      <point x="32" y="724" type="curve"/>
      <point x="33" y="696"/>
      <point x="41" y="657"/>
      <point x="50" y="637" type="curve"/>
      <point x="65" y="624" type="line"/>
      <point x="177" y="659" type="line"/>
      <point x="126" y="685" type="line"/>
      <point x="152" y="649"/>
      <point x="159" y="635"/>
      <point x="178" y="576" type="curve"/>
      <point x="199" y="512"/>
      <point x="216" y="454"/>
      <point x="230" y="417" type="curve"/>
      <point x="348" y="97" type="line" smooth="yes"/>
      <point x="379" y="13"/>
      <point x="401" y="-14"/>
    </contour>
    <contour>
      <point x="90" y="-14" type="curve"/>
      <point x="113" y="2" type="line"/>
      <point x="256" y="432" type="line"/>
      <point x="220" y="480" type="line"/>
      <point x="15" y="30" type="line"/>
      <point x="24" y="10"/>
      <point x="59" y="-11"/>
    </contour>
  </outline>
</glyph>
<glyph name="omicron" format="1">
  <advance width="488"/>
  <unicode hex="03BF"/>
  <outline>
    <contour>
      <point x="233" y="-20" type="curve"/>
      <point x="360" y="-20"/>
      <point x="456" y="98"/>
      <point x="456" y="252" type="curve"/>
      <point x="456" y="390"/>
      <point x="372" y="488"/>
      <point x="255" y="488" type="curve"/>
      <point x="128" y="488"/>
      <point x="32" y="370"/>
      <point x="32" y="216" type="curve"/>
      <point x="32" y="78"/>
      <point x="116" y="-20"/>
    </contour>
    <contour>
      <point x="212" y="70" type="curve"/>
      <point x="182" y="70"/>
      <point x="146" y="76"/>
      <point x="120" y="92" type="curve"/>
      <point x="105" y="120"/>
      <point x="98" y="153"/>
      <point x="98" y="190" type="curve"/>
      <point x="98" y="308"/>
      <point x="167" y="398"/>
      <point x="276" y="398" type="curve"/>
      <point x="306" y="398"/>
      <point x="342" y="392"/>
      <point x="368" y="376" type="curve"/>
      <point x="383" y="348"/>
      <point x="390" y="315"/>
      <point x="390" y="278" type="curve"/>
      <point x="390" y="160"/>
      <point x="321" y="70"/>
    </contour>
    <contour>
      <point x="269" y="468" type="move" name="top"/>
    </contour>
  </outline>
</glyph>
<glyph name="tau" format="1">
  <advance width="503"/>
  <unicode hex="03C4"/>
  <note>
    
  </note>
  <outline>
    <contour>
      <point x="297" y="-14" type="curve"/>
      <point x="343" y="-14"/>
      <point x="390" y="21"/>
      <point x="408" y="71" type="curve"/>
      <point x="395" y="99" type="line"/>
      <point x="234" y="81" type="line"/>
      <point x="267" y="57" type="line"/>
      <point x="284" y="427" type="line"/>
      <point x="192" y="422" type="line"/>
      <point x="211" y="164" type="line" smooth="yes"/>
      <point x="219" y="49"/>
      <point x="245" y="-14"/>
    </contour>
    <contour>
      <point x="-8" y="370" type="curve"/>
      <point x="13" y="341" type="line"/>
      <point x="84" y="387" type="line"/>
      <point x="472" y="383" type="line"/>
      <point x="481" y="403" type="line"/>
      <point x="482" y="431"/>
      <point x="477" y="465"/>
      <point x="468" y="483" type="curve"/>
      <point x="317" y="468" type="line"/>
      <point x="98" y="468" type="line"/>
      <point x="58" y="457"/>
      <point x="17" y="419"/>
    </contour>
  </outline>
</glyph>
<glyph name="upsilon" format="1">
  <advance width="488"/>
  <unicode hex="03C5"/>
  <outline>
    <contour>
      <point x="253" y="-20" type="curve"/>
      <point x="371" y="-20"/>
      <point x="456" y="85"/>
      <point x="456" y="232" type="curve"/>
      <point x="456" y="318"/>
      <point x="434" y="398"/>
      <point x="396" y="455" type="curve"/>
      <point x="384" y="465"/>
      <point x="368" y="474"/>
      <point x="347" y="483" type="curve"/>
      <point x="330" y="465" type="line"/>
      <point x="356" y="413"/>
      <point x="374" y="345"/>
      <point x="374" y="271" type="curve"/>
      <point x="374" y="138"/>
      <point x="324" y="70"/>
      <point x="234" y="70" type="curve"/>
      <point x="192" y="70"/>
      <point x="152" y="84"/>
      <point x="136" y="105" type="curve"/>
      <point x="153" y="163" type="line"/>
      <point x="175" y="279"/>
      <point x="184" y="339"/>
      <point x="184" y="378" type="curve"/>
      <point x="184" y="437"/>
      <point x="150" y="482"/>
      <point x="106" y="482" type="curve"/>
      <point x="73" y="482"/>
      <point x="28" y="447"/>
      <point x="5" y="403" type="curve"/>
      <point x="21" y="375" type="line"/>
      <point x="137" y="391" type="line"/>
      <point x="112" y="417" type="line"/>
      <point x="83" y="233"/>
      <point x="80" y="207"/>
      <point x="80" y="155" type="curve"/>
      <point x="80" y="57"/>
      <point x="156" y="-20"/>
    </contour>
    <contour>
      <point x="246" y="468" type="move" name="top"/>
    </contour>
  </outline>
</glyph>
<glyph name="psi" format="1">
  <advance width="650"/>
  <unicode hex="03C8"/>
  <outline>
    <contour>
      <point x="338" y="-20" type="curve"/>
      <point x="508" y="-20"/>
      <point x="618" y="88"/>
      <point x="618" y="245" type="curve"/>
      <point x="618" y="326"/>
      <point x="598" y="398"/>
      <point x="558" y="455" type="curve"/>
      <point x="545" y="466"/>
      <point x="530" y="475"/>
      <point x="509" y="483" type="curve"/>
      <point x="492" y="465" type="line"/>
      <point x="521" y="409"/>
      <point x="536" y="348"/>
      <point x="536" y="286" type="curve"/>
      <point x="536" y="123"/>
      <point x="456" y="70"/>
      <point x="347" y="70" type="curve"/>
      <point x="327" y="70" type="line"/>
      <point x="223" y="70"/>
      <point x="169" y="93"/>
      <point x="136" y="116" type="curve"/>
      <point x="154" y="176" type="line"/>
      <point x="176" y="292"/>
      <point x="184" y="346"/>
      <point x="184" y="378" type="curve"/>
      <point x="184" y="437"/>
      <point x="150" y="482"/>
      <point x="106" y="482" type="curve"/>
      <point x="73" y="482"/>
      <point x="28" y="447"/>
      <point x="5" y="403" type="curve"/>
      <point x="21" y="375" type="line"/>
      <point x="136" y="391" type="line"/>
      <point x="111" y="417" type="line"/>
      <point x="86" y="265"/>
      <point x="80" y="225"/>
      <point x="80" y="163" type="curve"/>
      <point x="80" y="56"/>
      <point x="191" y="-20"/>
    </contour>
    <contour>
      <point x="284" y="-213" type="line"/>
      <point x="308" y="-225" type="line"/>
      <point x="352" y="-225"/>
      <point x="386" y="-220"/>
      <point x="399" y="-211" type="curve"/>
      <point x="361" y="2" type="line"/>
      <point x="362" y="52" type="line"/>
      <point x="400" y="690" type="line"/>
      <point x="381" y="702" type="line"/>
      <point x="351" y="701"/>
      <point x="324" y="695"/>
      <point x="294" y="684" type="curve"/>
      <point x="308" y="65" type="line"/>
      <point x="308" y="-2" type="line"/>
    </contour>
  </outline>
</glyph>
<glyph name="dvShortA" format="1">
  <advance width="742"/>
  <unicode hex="0904"/>
  <outline>
    <component base="dvA"/>
    <component base="dvMatraShortE" xOffset="739"/>
    <contour>
      <point x="700" y="610" type="move" name="abvmBINDU"/>
    </contour>
  </outline>
</glyph>
<glyph name="dvAa" format="1">
  <advance width="1005"/>
  <unicode hex="0906"/>
  <outline>
    <component base="dvA"/>
    <component base="dvMatraAa" xOffset="742"/>
    <contour>
      <point x="750" y="630" type="move" name="abvmBINDU"/>
    </contour>
    <contour>
      <point x="745" y="630" type="move" name="abvmCANDRABINDU"/>
    </contour>
  </outline>
</glyph>
<glyph name="dvAi" format="1">
  <advance width="555"/>
  <unicode hex="0910"/>
  <outline>
    <component base="dvE"/>
    <component base="dvMatraE" xOffset="564"/>
    <contour>
      <point x="490" y="610" type="move" name="abvmBINDU"/>
    </contour>
  </outline>
</glyph>
<glyph name="dvShortO" format="1">
  <advance width="1005"/>
  <unicode hex="0912"/>
  <outline>
    <component base="dvA"/>
    <component base="dvMatraShortO" xOffset="742"/>
    <contour>
      <point x="965" y="610" type="move" name="abvmBINDU"/>
    </contour>
    <contour>
      <point x="880" y="465" type="move" name="abvmTOP"/>
    </contour>
  </outline>
</glyph>
<glyph name="dvMatraE" format="1">
  <advance width="0"/>
  <unicode hex="0947"/>
  <outline>
    <contour>
      <point x="-263" y="738" type="curve"/>
      <point x="-141" y="565" type="line"/>
      <point x="-102" y="590" type="line"/>
      <point x="-238" y="785" type="line" smooth="yes"/>
      <point x="-339" y="930"/>
      <point x="-448" y="912"/>
      <point x="-525" y="848" type="curve"/>
      <point x="-478" y="771" type="line"/>
      <point x="-389" y="828"/>
      <point x="-325" y="825"/>
    </contour>
    <contour>
      <point x="-141" y="468" type="move" name="_abvmTOP"/>
    </contour>
    <contour>
      <point x="-60" y="610" type="move" name="abvmBINDU"/>
    </contour>
  </outline>
</glyph>
<glyph name="dvDanda" format="1">
  <advance width="438"/>
  <unicode hex="0964"/>
  <outline>
    <contour>
      <point x="222" y="3" type="line"/>
      <point x="279" y="-45" type="line"/>
      <point x="303" y="-38" type="line"/>
      <point x="303" y="583" type="line"/>
      <point x="246" y="631" type="line"/>
      <point x="222" y="624" type="line"/>
    </contour>
  </outline>
</glyph>
<glyph name="dvAW" format="1">
  <advance width="1005"/>
  <unicode hex="0975"/>
  <outline>
    <component base="dvA"/>
    <component base="dvMatraAW" xOffset="742"/>
    <contour>
      <point x="984" y="610" type="move" name="abvmBINDU"/>
    </contour>
  </outline>
</glyph>
<glyph name="lenis" format="1">
  <advance width="365"/>
  <unicode hex="1FBF"/>
  <outline>
    <contour>
      <point x="123" y="558" type="curve"/>
      <point x="143" y="529" type="line"/>
      <point x="211" y="563"/>
      <point x="247" y="626"/>
      <point x="247" y="680" type="curve"/>
      <point x="247" y="720"/>
      <point x="220" y="756"/>
      <point x="181" y="765" type="curve"/>
      <point x="146" y="748"/>
      <point x="133" y="724"/>
      <point x="127" y="689" type="curve"/>
      <point x="179" y="649" type="line"/>
      <point x="175" y="614"/>
      <point x="160" y="592"/>
    </contour>
    <contour>
      <point x="199" y="468" type="move" name="_top"/>
    </contour>
  </outline>
</glyph>
<glyph name="dieresistilde" format="1">
  <advance width="365"/>
  <unicode hex="1FC1"/>
  <outline>
    <component base="grTilde" yOffset="174"/>
    <component base="dieresiscomb" xOffset="181" yOffset="23"/>
    <contour>
      <point x="175" y="468" type="move" name="_top"/>
    </contour>
  </outline>
</glyph>
<glyph name="lenisgrave" format="1">
  <advance width="365"/>
  <unicode hex="1FCD"/>
  <outline>
    <contour>
      <point x="188" y="714" type="line"/>
      <point x="298" y="529" type="line"/>
      <point x="333" y="546" type="line"/>
      <point x="269" y="765" type="line"/>
      <point x="237" y="764"/>
      <point x="209" y="750"/>
      <point x="188" y="732" type="curve"/>
    </contour>
    <contour>
      <point x="33" y="558" type="curve"/>
      <point x="53" y="529" type="line"/>
      <point x="121" y="563"/>
      <point x="157" y="626"/>
      <point x="157" y="680" type="curve"/>
      <point x="157" y="720"/>
      <point x="130" y="756"/>
      <point x="91" y="765" type="curve"/>
      <point x="56" y="748"/>
      <point x="43" y="724"/>
      <point x="37" y="689" type="curve"/>
      <point x="89" y="649" type="line"/>
      <point x="85" y="614"/>
      <point x="70" y="592"/>
    </contour>
    <contour>
      <point x="220" y="468" type="move" name="_top"/>
    </contour>
  </outline>
</glyph>
<glyph name="aspergrave" format="1">
  <advance width="365"/>
  <unicode hex="1FDD"/>
  <outline>
    <contour>
      <point x="188" y="714" type="line"/>
      <point x="298" y="529" type="line"/>
      <point x="333" y="546" type="line"/>
      <point x="269" y="765" type="line"/>
      <point x="237" y="764"/>
      <point x="209" y="750"/>
      <point x="188" y="732" type="curve"/>
    </contour>
    <contour>
      <point x="136" y="529" type="curve"/>
      <point x="156" y="558" type="line"/>
      <point x="119" y="592"/>
      <point x="104" y="614"/>
      <point x="100" y="649" type="curve"/>
      <point x="152" y="689" type="line"/>
      <point x="146" y="724"/>
      <point x="133" y="748"/>
      <point x="98" y="765" type="curve"/>
      <point x="59" y="756"/>
      <point x="32" y="720"/>
      <point x="32" y="680" type="curve"/>
      <point x="32" y="626"/>
      <point x="68" y="563"/>
    </contour>
    <contour>
      <point x="218" y="468" type="move" name="_top"/>
    </contour>
  </outline>
</glyph>
<glyph name="asperacute" format="1">
  <advance width="365"/>
  <unicode hex="1FDE"/>
  <outline>
    <contour>
      <point x="185" y="546" type="line"/>
      <point x="220" y="529" type="line"/>
      <point x="330" y="714" type="line"/>
      <point x="330" y="732" type="line"/>
      <point x="309" y="750"/>
      <point x="281" y="764"/>
      <point x="249" y="765" type="curve"/>
    </contour>
    <contour>
      <point x="139" y="529" type="curve"/>
      <point x="159" y="558" type="line"/>
      <point x="122" y="592"/>
      <point x="107" y="614"/>
      <point x="103" y="649" type="curve"/>
      <point x="155" y="689" type="line"/>
      <point x="149" y="724"/>
      <point x="136" y="748"/>
      <point x="101" y="765" type="curve"/>
      <point x="62" y="756"/>
      <point x="35" y="720"/>
      <point x="35" y="680" type="curve"/>
      <point x="35" y="626"/>
      <point x="71" y="563"/>
    </contour>
    <contour>
      <point x="215" y="468" type="move" name="_top"/>
    </contour>
  </outline>
</glyph>
<glyph name="aspertilde" format="1">
  <advance width="365"/>
  <unicode hex="1FDF"/>
  <outline>
    <component base="lenis" xScale="-1" xOffset="364"/>
    <component base="grTilde" yOffset="197"/>
    <contour>
      <point x="213" y="468" type="move" name="_top"/>
    </contour>
  </outline>
</glyph>
<glyph name="dieresisacute" format="1">
  <advance width="365"/>
  <unicode hex="1FEE"/>
  <outline>
    <component base="dieresistonos"/>
    <contour>
      <point x="182" y="468" type="move" name="_top"/>
    </contour>
  </outline>
</glyph>
<glyph name="fraction" format="1">
  <advance width="122"/>
  <unicode hex="2044"/>
  <outline>
    <contour>
      <point x="-228" y="64" type="line"/>
      <point x="-182" y="20" type="line"/>
      <point x="390" y="619" type="line"/>
      <point x="346" y="664" type="line"/>
    </contour>
  </outline>
</glyph>
<glyph name="acutecomb.case" format="1">
  <advance width="0"/>
  <outline>
    <contour>
      <point x="-109" y="749" type="line"/>
      <point x="-74" y="692" type="line"/>
      <point x="9" y="727"/>
      <point x="82" y="758"/>
      <point x="166" y="790" type="curve"/>
      <point x="116" y="874" type="line"/>
    </contour>
    <contour>
      <point x="1" y="650" type="move" name="_top"/>
    </contour>
  </outline>
</glyph>
<glyph name="asper.case" format="1">
  <advance width="365"/>
  <outline>
    <contour>
      <point x="129" y="418" type="curve"/>
      <point x="149" y="447" type="line"/>
      <point x="112" y="481"/>
      <point x="97" y="503"/>
      <point x="93" y="538" type="curve"/>
      <point x="145" y="578" type="line"/>
      <point x="139" y="613"/>
      <point x="126" y="637"/>
      <point x="91" y="654" type="curve"/>
      <point x="52" y="645"/>
      <point x="25" y="609"/>
      <point x="25" y="569" type="curve"/>
      <point x="25" y="515"/>
      <point x="61" y="452"/>
    </contour>
    <contour>
      <point x="78" y="343" type="move" name="_left"/>
    </contour>
  </outline>
</glyph>
<glyph name="asperacute.case" format="1">
  <advance width="365"/>
  <outline>
    <contour>
      <point x="19" y="435" type="line"/>
      <point x="54" y="418" type="line"/>
      <point x="164" y="603" type="line"/>
      <point x="164" y="621" type="line"/>
      <point x="143" y="639"/>
      <point x="115" y="653"/>
      <point x="83" y="654" type="curve"/>
    </contour>
    <contour>
      <point x="-27" y="418" type="curve"/>
      <point x="-7" y="447" type="line"/>
      <point x="-44" y="481"/>
      <point x="-59" y="503"/>
      <point x="-63" y="538" type="curve"/>
      <point x="-11" y="578" type="line"/>
      <point x="-17" y="613"/>
      <point x="-30" y="637"/>
      <point x="-65" y="654" type="curve"/>
      <point x="-104" y="645"/>
      <point x="-131" y="609"/>
      <point x="-131" y="569" type="curve"/>
      <point x="-131" y="515"/>
      <point x="-95" y="452"/>
    </contour>
    <contour>
      <point x="78" y="343" type="move" name="_left"/>
    </contour>
  </outline>
</glyph>
<glyph name="aspergrave.case" format="1">
  <advance width="365"/>
  <outline>
    <contour>
      <point x="19" y="603" type="line"/>
      <point x="129" y="418" type="line"/>
      <point x="164" y="435" type="line"/>
      <point x="100" y="654" type="line"/>
      <point x="68" y="653"/>
      <point x="40" y="639"/>
      <point x="19" y="621" type="curve"/>
    </contour>
    <contour>
      <point x="-33" y="418" type="curve"/>
      <point x="-13" y="447" type="line"/>
      <point x="-50" y="481"/>
      <point x="-65" y="503"/>
      <point x="-69" y="538" type="curve"/>
      <point x="-17" y="578" type="line"/>
      <point x="-23" y="613"/>
      <point x="-36" y="637"/>
      <point x="-71" y="654" type="curve"/>
      <point x="-110" y="645"/>
      <point x="-137" y="609"/>
      <point x="-137" y="569" type="curve"/>
      <point x="-137" y="515"/>
      <point x="-101" y="452"/>
    </contour>
    <contour>
      <point x="78" y="343" type="move" name="_left"/>
    </contour>
  </outline>
</glyph>
<glyph name="dvAnusvara.alt" format="1">
  <advance width="0"/>
  <outline>
    <contour>
      <point x="30" y="708" type="curve"/>
      <point x="51" y="722"/>
      <point x="73" y="752"/>
      <point x="83" y="777" type="curve"/>
      <point x="70" y="794"/>
      <point x="41" y="820"/>
      <point x="16" y="830" type="curve"/>
      <point x="-5" y="818"/>
      <point x="-27" y="789"/>
      <point x="-40" y="761" type="curve"/>
      <point x="-26" y="741"/>
      <point x="8" y="717"/>
    </contour>
    <contour>
      <point x="0" y="650" type="move" name="_abvmTOP"/>
    </contour>
  </outline>
</glyph>
<glyph name="dvChRYa" format="1">
  <advance width="1237"/>
  <outline>
    <component base="dvChYa"/>
    <component base="dvRakar" xOffset="383"/>
    <contour>
      <point x="1007" y="630" type="move" name="abvmBINDU"/>
    </contour>
    <contour>
      <point x="1032" y="630" type="move" name="abvmCANDRABINDU"/>
    </contour>
    <contour>
      <point x="1292" y="630" type="move" name="abvmCANDRABINDU2"/>
    </contour>
    <contour>
      <point x="1137" y="468" type="move" name="abvmTOP"/>
    </contour>
    <contour>
      <point x="1087" y="-15" type="move" name="blwmBOTTOM"/>
    </contour>
  </outline>
</glyph>
<glyph name="dvFive.ss05" format="1">
  <advance width="554"/>
  <outline>
    <contour>
      <point x="266" y="192" type="curve"/>
      <point x="338" y="192"/>
      <point x="399" y="249"/>
      <point x="421" y="317" type="curve"/>
      <point x="384" y="382" type="line"/>
      <point x="377" y="296"/>
      <point x="258" y="222"/>
      <point x="169" y="278" type="curve"/>
      <point x="131" y="348"/>
      <point x="168" y="483"/>
      <point x="213" y="591" type="curve"/>
      <point x="136" y="622" type="line"/>
      <point x="98" y="541"/>
      <point x="80" y="453"/>
      <point x="80" y="400" type="curve"/>
      <point x="80" y="274"/>
      <point x="178" y="192"/>
    </contour>
    <contour>
      <point x="129" y="102" type="line"/>
      <point x="135" y="-6" type="line"/>
      <point x="192" y="-13"/>
      <point x="264" y="22"/>
      <point x="280" y="47" type="curve"/>
      <point x="254" y="78" type="line"/>
      <point x="160" y="123" type="line"/>
    </contour>
    <contour>
      <point x="211" y="42" type="line"/>
      <point x="439" y="-65" type="line"/>
      <point x="473" y="-43" type="line"/>
      <point x="474" y="-18" type="line"/>
      <point x="248" y="85" type="line"/>
    </contour>
    <contour>
      <point x="216" y="82" type="curve"/>
      <point x="279" y="48" type="line"/>
      <point x="394" y="162"/>
      <point x="458" y="337"/>
      <point x="449" y="562" type="curve"/>
      <point x="377" y="585" type="line"/>
      <point x="383" y="412"/>
      <point x="347" y="207"/>
    </contour>
  </outline>
</glyph>
<glyph name="dvKSPRa" format="1">
  <advance width="1527"/>
  <outline>
    <component base="dvK"/>
    <component base="dvS" xOffset="575"/>
    <component base="dvPRa" xOffset="962"/>
    <contour>
      <point x="1262" y="630" type="move" name="abvmBINDU"/>
    </contour>
    <contour>
      <point x="1277" y="630" type="move" name="abvmCANDRABINDU"/>
    </contour>
    <contour>
      <point x="1547" y="630" type="move" name="abvmCANDRABINDU2"/>
    </contour>
    <contour>
      <point x="1392" y="468" type="move" name="abvmTOP"/>
    </contour>
    <contour>
      <point x="1342" y="-15" type="move" name="blwmBOTTOM"/>
    </contour>
  </outline>
</glyph>
<glyph name="dvKSha.MAR" format="1">
  <advance width="1270"/>
  <outline>
    <contour>
      <point x="230" y="103" type="curve"/>
      <point x="288" y="103"/>
      <point x="335" y="139"/>
      <point x="367" y="190" type="curve"/>
      <point x="342" y="276" type="line"/>
      <point x="301" y="192"/>
      <point x="198" y="143"/>
      <point x="124" y="187" type="curve"/>
      <point x="69" y="267"/>
      <point x="116" y="369"/>
      <point x="217" y="369" type="curve"/>
      <point x="265" y="369"/>
      <point x="308" y="346"/>
      <point x="351" y="319" type="curve"/>
      <point x="354" y="371" type="line"/>
      <point x="218" y="436" type="line"/>
      <point x="130" y="463"/>
      <point x="23" y="401"/>
      <point x="23" y="298" type="curve"/>
      <point x="23" y="189"/>
      <point x="141" y="103"/>
    </contour>
    <contour>
      <point x="322" y="5" type="line"/>
      <point x="381" y="-33" type="line"/>
      <point x="405" y="-26" type="line"/>
      <point x="405" y="500" type="line"/>
      <point x="347" y="551" type="line"/>
      <point x="322" y="562" type="line"/>
    </contour>
    <contour>
      <point x="368" y="294" type="curve"/>
      <point x="390" y="206" type="line"/>
      <point x="462" y="296"/>
      <point x="521" y="339"/>
      <point x="571" y="339" type="curve"/>
      <point x="577" y="339"/>
      <point x="584" y="339"/>
      <point x="590" y="337" type="curve"/>
      <point x="609" y="382" type="line"/>
      <point x="585" y="399"/>
      <point x="558" y="409"/>
      <point x="531" y="409" type="curve"/>
      <point x="467" y="409"/>
      <point x="406" y="351"/>
    </contour>
    <contour>
      <point x="-30" y="588" type="line"/>
      <point x="0" y="538" type="line"/>
      <point x="616" y="538" type="line"/>
      <point x="625" y="558" type="line"/>
      <point x="595" y="608" type="line"/>
      <point x="-21" y="608" type="line"/>
    </contour>
    <component base="dvSha.MAR" xOffset="498"/>
    <contour>
      <point x="956" y="630" type="move" name="abvmBINDU"/>
    </contour>
    <contour>
      <point x="971" y="630" type="move" name="abvmCANDRABINDU"/>
    </contour>
    <contour>
      <point x="1291" y="630" type="move" name="abvmCANDRABINDU2"/>
    </contour>
    <contour>
      <point x="1136" y="468" type="move" name="abvmTOP"/>
    </contour>
    <contour>
      <point x="1085" y="-42" type="move" name="blwmBOTTOM"/>
    </contour>
  </outline>
</glyph>
<glyph name="dvKTYa" format="1">
  <advance width="1494"/>
  <outline>
    <component base="dvK"/>
    <component base="dvT" xOffset="565"/>
    <component base="dvYa" xOffset="907"/>
    <contour>
      <point x="1229" y="630" type="move" name="abvmBINDU"/>
    </contour>
    <contour>
      <point x="1254" y="630" type="move" name="abvmCANDRABINDU"/>
    </contour>
    <contour>
      <point x="1514" y="630" type="move" name="abvmCANDRABINDU2"/>
    </contour>
    <contour>
      <point x="1359" y="468" type="move" name="abvmTOP"/>
    </contour>
    <contour>
      <point x="1309" y="5" type="move" name="blwmBOTTOM"/>
    </contour>
  </outline>
</glyph>
<glyph name="dvKhhMa" format="1">
  <advance width="1206"/>
  <outline>
    <component base="dvKhh"/>
    <component base="dvMa" xOffset="582"/>
    <contour>
      <point x="931" y="630" type="move" name="abvmBINDU"/>
    </contour>
    <contour>
      <point x="946" y="630" type="move" name="abvmCANDRABINDU"/>
    </contour>
    <contour>
      <point x="1226" y="630" type="move" name="abvmCANDRABINDU2"/>
    </contour>
    <contour>
      <point x="1071" y="468" type="move" name="abvmTOP"/>
    </contour>
    <contour>
      <point x="1021" y="5" type="move" name="blwmBOTTOM"/>
    </contour>
  </outline>
</glyph>
<glyph name="dvKhhSa" format="1">
  <advance width="1293"/>
  <outline>
    <component base="dvKhh"/>
    <component base="dvSa" xOffset="597"/>
    <contour>
      <point x="1158" y="630" type="move" name="abvmBINDU"/>
    </contour>
    <contour>
      <point x="1143" y="630" type="move" name="abvmCANDRABINDU"/>
    </contour>
    <contour>
      <point x="1313" y="630" type="move" name="abvmCANDRABINDU2"/>
    </contour>
    <contour>
      <point x="1158" y="468" type="move" name="abvmTOP"/>
    </contour>
    <contour>
      <point x="1108" y="5" type="move" name="blwmBOTTOM"/>
    </contour>
  </outline>
</glyph>
<glyph name="dvLKYa" format="1">
  <advance width="1603"/>
  <outline>
    <component base="dvL"/>
    <component base="dvKYa" xOffset="432"/>
    <contour>
      <point x="1338" y="630" type="move" name="abvmBINDU"/>
    </contour>
    <contour>
      <point x="1363" y="630" type="move" name="abvmCANDRABINDU"/>
    </contour>
    <contour>
      <point x="1623" y="630" type="move" name="abvmCANDRABINDU2"/>
    </contour>
    <contour>
      <point x="1468" y="468" type="move" name="abvmTOP"/>
    </contour>
    <contour>
      <point x="1418" y="5" type="move" name="blwmBOTTOM"/>
    </contour>
  </outline>
</glyph>
<glyph name="dvMatraAi_dvAnusvara" format="1">
  <advance width="0"/>
  <outline>
    <contour>
      <point x="-27" y="674" type="curve"/>
      <point x="-5" y="689"/>
      <point x="19" y="720"/>
      <point x="29" y="746" type="curve"/>
      <point x="15" y="764"/>
      <point x="-15" y="792"/>
      <point x="-41" y="802" type="curve"/>
      <point x="-63" y="789"/>
      <point x="-86" y="759"/>
      <point x="-100" y="730" type="curve"/>
      <point x="-85" y="709"/>
      <point x="-50" y="683"/>
    </contour>
    <component base="dvMatraAi"/>
    <contour>
      <point x="-141" y="468" type="move" name="_abvmTOP"/>
    </contour>
  </outline>
</glyph>
<glyph name="dvMatraI.7" format="1">
  <advance width="263"/>
  <outline>
    <contour>
      <point x="99" y="597" type="curve"/>
      <point x="149" y="597" type="line"/>
      <point x="116" y="641"/>
      <point x="109" y="672"/>
      <point x="109" y="695" type="curve"/>
      <point x="109" y="783"/>
      <point x="203" y="827"/>
      <point x="341" y="827" type="curve"/>
      <point x="533" y="827"/>
      <point x="771" y="746"/>
      <point x="984" y="634" type="curve"/>
      <point x="1013" y="666" type="line"/>
      <point x="769" y="821"/>
      <point x="504" y="902"/>
      <point x="304" y="902" type="curve"/>
      <point x="129" y="902"/>
      <point x="30" y="837"/>
      <point x="30" y="736" type="curve"/>
      <point x="30" y="695"/>
      <point x="46" y="647"/>
    </contour>
    <contour>
      <point x="90" y="5" type="line"/>
      <point x="149" y="-33" type="line"/>
      <point x="173" y="-26" type="line"/>
      <point x="173" y="500" type="line"/>
      <point x="115" y="551" type="line"/>
      <point x="90" y="562" type="line"/>
    </contour>
    <contour>
      <point x="-30" y="588" type="line"/>
      <point x="0" y="538" type="line"/>
      <point x="284" y="538" type="line"/>
      <point x="293" y="558" type="line"/>
      <point x="263" y="608" type="line"/>
      <point x="-21" y="608" type="line"/>
    </contour>
    <contour>
      <point x="994" y="635" type="move" name="abvmTOP"/>
    </contour>
  </outline>
</glyph>
<glyph name="dvMatraI.8" format="1">
  <advance width="263"/>
  <outline>
    <contour>
      <point x="99" y="597" type="curve"/>
      <point x="149" y="597" type="line"/>
      <point x="117" y="640"/>
      <point x="110" y="671"/>
      <point x="110" y="694" type="curve"/>
      <point x="110" y="785"/>
      <point x="211" y="829"/>
      <point x="358" y="829" type="curve"/>
      <point x="565" y="829"/>
      <point x="827" y="747"/>
      <point x="1058" y="634" type="curve"/>
      <point x="1086" y="666" type="line"/>
      <point x="825" y="821"/>
      <point x="535" y="904"/>
      <point x="321" y="904" type="curve"/>
      <point x="135" y="904"/>
      <point x="31" y="838"/>
      <point x="31" y="735" type="curve"/>
      <point x="31" y="695"/>
      <point x="46" y="648"/>
    </contour>
    <contour>
      <point x="90" y="5" type="line"/>
      <point x="149" y="-33" type="line"/>
      <point x="173" y="-26" type="line"/>
      <point x="173" y="500" type="line"/>
      <point x="115" y="551" type="line"/>
      <point x="90" y="562" type="line"/>
    </contour>
    <contour>
      <point x="-30" y="588" type="line"/>
      <point x="0" y="538" type="line"/>
      <point x="284" y="538" type="line"/>
      <point x="293" y="558" type="line"/>
      <point x="263" y="608" type="line"/>
      <point x="-21" y="608" type="line"/>
    </contour>
    <contour>
      <point x="1066" y="635" type="move" name="abvmTOP"/>
    </contour>
  </outline>
</glyph>
<glyph name="dvMatraIi_dvReph.1" format="1">
  <advance width="263"/>
  <outline>
    <contour>
      <point x="133" y="580" type="curve"/>
      <point x="163" y="580" type="line"/>
      <point x="133" y="631"/>
      <point x="119" y="681"/>
      <point x="119" y="719" type="curve"/>
      <point x="119" y="786"/>
      <point x="161" y="828"/>
      <point x="217" y="828" type="curve"/>
      <point x="240" y="828"/>
      <point x="265" y="821"/>
      <point x="288" y="807" type="curve"/>
      <point x="305" y="841" type="line"/>
      <point x="276" y="880"/>
      <point x="236" y="899"/>
      <point x="196" y="899" type="curve"/>
      <point x="127" y="899"/>
      <point x="72" y="843"/>
      <point x="72" y="760" type="curve"/>
      <point x="72" y="709"/>
      <point x="92" y="629"/>
    </contour>
    <component base="dvMatraIi.1"/>
    <contour>
      <point x="228" y="608" type="move" name="abvmBINDU"/>
    </contour>
    <contour>
      <point x="173" y="468" type="move" name="abvmTOP"/>
    </contour>
  </outline>
</glyph>
<glyph name="dvMatraO_dvReph_dvAnusvara" format="1">
  <advance width="263"/>
  <outline>
    <component base="dvMatraAa"/>
    <component base="dvMatraE_dvReph_dvAnusvara" xOffset="275"/>
    <contour>
      <point x="198" y="588" type="move" name="abvmBINDU"/>
    </contour>
  </outline>
</glyph>
<glyph name="dvMatraShortE_dvAnusvara" format="1">
  <advance width="0"/>
  <outline>
    <component base="dvMatraShortE"/>
    <component base="dvAnusvara" xOffset="-38" yOffset="-40"/>
    <contour>
      <point x="-139" y="468" type="move" name="_abvmTOP"/>
    </contour>
  </outline>
</glyph>
<glyph name="dvNDha" format="1">
  <advance width="869"/>
  <outline>
    <contour>
      <point x="118" y="144" type="curve"/>
      <point x="166" y="163" type="line"/>
      <point x="166" y="302" type="line"/>
      <point x="99" y="347" type="line"/>
      <point x="53" y="347" type="line"/>
      <point x="12" y="300" type="line"/>
      <point x="35" y="241"/>
      <point x="79" y="181"/>
    </contour>
    <contour>
      <point x="66" y="347" type="line"/>
      <point x="97" y="271" type="line"/>
      <point x="396" y="271" type="line"/>
      <point x="410" y="291" type="line"/>
      <point x="384" y="347" type="line"/>
    </contour>
    <contour>
      <point x="-30" y="588" type="line"/>
      <point x="0" y="538" type="line"/>
      <point x="261" y="538" type="line"/>
      <point x="270" y="558" type="line"/>
      <point x="240" y="608" type="line"/>
      <point x="-21" y="608" type="line"/>
    </contour>
    <component base="dvDha" xOffset="214"/>
    <contour>
      <point x="734" y="630" type="move" name="abvmBINDU"/>
    </contour>
    <contour>
      <point x="719" y="630" type="move" name="abvmCANDRABINDU"/>
    </contour>
    <contour>
      <point x="889" y="630" type="move" name="abvmCANDRABINDU2"/>
    </contour>
    <contour>
      <point x="734" y="468" type="move" name="abvmTOP"/>
    </contour>
    <contour>
      <point x="684" y="5" type="move" name="blwmBOTTOM"/>
    </contour>
  </outline>
</glyph>
<glyph name="dvNJYa" format="1">
  <advance width="1335"/>
  <outline>
    <component base="dvN"/>
    <component base="dvJYa" xOffset="295"/>
    <contour>
      <point x="1070" y="630" type="move" name="abvmBINDU"/>
    </contour>
    <contour>
      <point x="1095" y="630" type="move" name="abvmCANDRABINDU"/>
    </contour>
    <contour>
      <point x="1355" y="630" type="move" name="abvmCANDRABINDU2"/>
    </contour>
    <contour>
      <point x="1200" y="468" type="move" name="abvmTOP"/>
    </contour>
    <contour>
      <point x="1150" y="5" type="move" name="blwmBOTTOM"/>
    </contour>
  </outline>
</glyph>
<glyph name="dvNSha" format="1">
  <advance width="982"/>
  <outline>
    <contour>
      <point x="118" y="203" type="curve"/>
      <point x="166" y="222" type="line"/>
      <point x="166" y="361" type="line"/>
      <point x="99" y="406" type="line"/>
      <point x="53" y="406" type="line"/>
      <point x="12" y="359" type="line"/>
      <point x="35" y="300"/>
      <point x="79" y="240"/>
    </contour>
    <contour>
      <point x="66" y="406" type="line"/>
      <point x="97" y="330" type="line"/>
      <point x="416" y="330" type="line"/>
      <point x="430" y="350" type="line"/>
      <point x="404" y="406" type="line"/>
    </contour>
    <contour>
      <point x="-30" y="588" type="line"/>
      <point x="0" y="538" type="line"/>
      <point x="329" y="538" type="line"/>
      <point x="338" y="558" type="line"/>
      <point x="308" y="608" type="line"/>
      <point x="-21" y="608" type="line"/>
    </contour>
    <component base="dvSha" xOffset="240"/>
    <contour>
      <point x="717" y="630" type="move" name="abvmBINDU"/>
    </contour>
    <contour>
      <point x="705" y="630" type="move" name="abvmCANDRABINDU"/>
    </contour>
    <contour>
      <point x="1002" y="630" type="move" name="abvmCANDRABINDU2"/>
    </contour>
    <contour>
      <point x="847" y="468" type="move" name="abvmTOP"/>
    </contour>
    <contour>
      <point x="797" y="-42" type="move" name="blwmBOTTOM"/>
    </contour>
  </outline>
</glyph>
<glyph name="dvNTSa" format="1">
  <advance width="1265"/>
  <outline>
    <component base="dvN"/>
    <component base="dvT.alt1" xOffset="231"/>
    <component base="dvSa" xOffset="569"/>
    <contour>
      <point x="970" y="630" type="move" name="abvmBINDU"/>
    </contour>
    <contour>
      <point x="990" y="630" type="move" name="abvmCANDRABINDU"/>
    </contour>
    <contour>
      <point x="1285" y="630" type="move" name="abvmCANDRABINDU2"/>
    </contour>
    <contour>
      <point x="1130" y="468" type="move" name="abvmTOP"/>
    </contour>
    <contour>
      <point x="1080" y="5" type="move" name="blwmBOTTOM"/>
    </contour>
  </outline>
</glyph>
<glyph name="dvNThYa" format="1">
  <advance width="1233"/>
  <outline>
    <component base="dvN"/>
    <component base="dvTh" xOffset="267"/>
    <component base="dvYa" xOffset="646"/>
    <contour>
      <point x="968" y="630" type="move" name="abvmBINDU"/>
    </contour>
    <contour>
      <point x="993" y="630" type="move" name="abvmCANDRABINDU"/>
    </contour>
    <contour>
      <point x="1253" y="630" type="move" name="abvmCANDRABINDU2"/>
    </contour>
    <contour>
      <point x="1098" y="468" type="move" name="abvmTOP"/>
    </contour>
    <contour>
      <point x="1048" y="5" type="move" name="blwmBOTTOM"/>
    </contour>
  </outline>
</glyph>
<glyph name="dvPTha" format="1">
  <advance width="885"/>
  <outline>
    <contour>
      <point x="287" y="135" type="curve"/>
      <point x="334" y="135"/>
      <point x="396" y="159"/>
      <point x="438" y="221" type="curve"/>
      <point x="393" y="296" type="line"/>
      <point x="361" y="241"/>
      <point x="303" y="211"/>
      <point x="250" y="211" type="curve"/>
      <point x="208" y="211"/>
      <point x="171" y="229"/>
      <point x="151" y="267" type="curve"/>
      <point x="151" y="500" type="line"/>
      <point x="93" y="551" type="line"/>
      <point x="68" y="562" type="line"/>
      <point x="68" y="362" type="line" smooth="yes"/>
      <point x="68" y="243"/>
      <point x="188" y="135"/>
    </contour>
    <contour>
      <point x="-30" y="588" type="line"/>
      <point x="0" y="538" type="line"/>
      <point x="330" y="538" type="line"/>
      <point x="339" y="558" type="line"/>
      <point x="309" y="608" type="line"/>
      <point x="-21" y="608" type="line"/>
    </contour>
    <component base="dvTha" xOffset="268"/>
    <contour>
      <point x="750" y="630" type="move" name="abvmBINDU"/>
    </contour>
    <contour>
      <point x="735" y="630" type="move" name="abvmCANDRABINDU"/>
    </contour>
    <contour>
      <point x="905" y="630" type="move" name="abvmCANDRABINDU2"/>
    </contour>
    <contour>
      <point x="750" y="468" type="move" name="abvmTOP"/>
    </contour>
    <contour>
      <point x="700" y="5" type="move" name="blwmBOTTOM"/>
    </contour>
  </outline>
</glyph>
<glyph name="dvReph.MAR" format="1">
  <advance width="273"/>
  <outline>
    <contour>
      <point x="382" y="238" type="curve"/>
      <point x="366" y="329" type="line"/>
      <point x="351" y="329" type="line"/>
      <point x="286" y="242"/>
      <point x="132" y="211"/>
      <point x="35" y="371" type="curve"/>
      <point x="-5" y="339" type="line"/>
      <point x="122" y="139"/>
      <point x="307" y="161"/>
    </contour>
    <contour>
      <point x="-30" y="588" type="line"/>
      <point x="0" y="538" type="line"/>
      <point x="305" y="538" type="line"/>
      <point x="314" y="558" type="line"/>
      <point x="284" y="608" type="line"/>
      <point x="-21" y="608" type="line"/>
    </contour>
  </outline>
</glyph>
<glyph name="dvReph" format="1">
  <advance width="0"/>
  <outline>
    <contour>
      <point x="-157" y="587" type="curve"/>
      <point x="-128" y="604" type="line"/>
      <point x="-182" y="652"/>
      <point x="-205" y="705"/>
      <point x="-205" y="746" type="curve"/>
      <point x="-205" y="800"/>
      <point x="-166" y="832"/>
      <point x="-118" y="832" type="curve"/>
      <point x="-96" y="832"/>
      <point x="-73" y="825"/>
      <point x="-50" y="811" type="curve"/>
      <point x="-35" y="856" type="line"/>
      <point x="-61" y="877"/>
      <point x="-102" y="898"/>
      <point x="-150" y="898" type="curve"/>
      <point x="-230" y="898"/>
      <point x="-276" y="840"/>
      <point x="-276" y="775" type="curve"/>
      <point x="-276" y="708"/>
      <point x="-226" y="638"/>
    </contour>
    <contour>
      <point x="-156" y="468" type="move" name="_abvmTOP"/>
    </contour>
  </outline>
</glyph>
<glyph name="dvReph_dvAnusvara" format="1">
  <advance width="0"/>
  <outline>
    <contour>
      <point x="-157" y="587" type="curve"/>
      <point x="-128" y="604" type="line"/>
      <point x="-182" y="652"/>
      <point x="-205" y="705"/>
      <point x="-205" y="746" type="curve"/>
      <point x="-205" y="800"/>
      <point x="-166" y="832"/>
      <point x="-118" y="832" type="curve"/>
      <point x="-96" y="832"/>
      <point x="-73" y="825"/>
      <point x="-50" y="811" type="curve"/>
      <point x="-35" y="856" type="line"/>
      <point x="-61" y="877"/>
      <point x="-102" y="898"/>
      <point x="-150" y="898" type="curve"/>
      <point x="-230" y="898"/>
      <point x="-276" y="840"/>
      <point x="-276" y="775" type="curve"/>
      <point x="-276" y="708"/>
      <point x="-226" y="638"/>
    </contour>
    <contour>
      <point x="-89" y="665" type="curve"/>
      <point x="-69" y="678"/>
      <point x="-47" y="707"/>
      <point x="-38" y="730" type="curve"/>
      <point x="-51" y="747"/>
      <point x="-78" y="772"/>
      <point x="-102" y="781" type="curve"/>
      <point x="-122" y="769"/>
      <point x="-142" y="742"/>
      <point x="-155" y="716" type="curve"/>
      <point x="-142" y="697"/>
      <point x="-110" y="673"/>
    </contour>
    <contour>
      <point x="-156" y="468" type="move" name="_abvmTOP"/>
    </contour>
  </outline>
</glyph>
<glyph name="dvSsMYa" format="1">
  <advance width="1234"/>
  <outline>
    <component base="dvSs"/>
    <component base="dvM" xOffset="315"/>
    <component base="dvYa" xOffset="647"/>
    <contour>
      <point x="969" y="630" type="move" name="abvmBINDU"/>
    </contour>
    <contour>
      <point x="994" y="630" type="move" name="abvmCANDRABINDU"/>
    </contour>
    <contour>
      <point x="1254" y="630" type="move" name="abvmCANDRABINDU2"/>
    </contour>
    <contour>
      <point x="1099" y="468" type="move" name="abvmTOP"/>
    </contour>
    <contour>
      <point x="1049" y="5" type="move" name="blwmBOTTOM"/>
    </contour>
  </outline>
</glyph>
<glyph name="dvT" format="1">
  <advance width="331"/>
  <outline>
    <contour>
      <point x="227" y="-38" type="curve"/>
      <point x="264" y="-3" type="line"/>
      <point x="157" y="102"/>
      <point x="130" y="163"/>
      <point x="130" y="212" type="curve"/>
      <point x="130" y="288"/>
      <point x="198" y="327"/>
      <point x="268" y="327" type="curve"/>
      <point x="311" y="327"/>
      <point x="363" y="312"/>
      <point x="410" y="275" type="curve"/>
      <point x="440" y="347" type="line"/>
      <point x="377" y="389"/>
      <point x="322" y="409"/>
      <point x="253" y="409" type="curve"/>
      <point x="113" y="409"/>
      <point x="48" y="326"/>
      <point x="48" y="244" type="curve"/>
      <point x="48" y="160"/>
      <point x="117" y="67"/>
    </contour>
    <contour>
      <point x="-30" y="588" type="line"/>
      <point x="0" y="538" type="line"/>
      <point x="372" y="538" type="line"/>
      <point x="381" y="558" type="line"/>
      <point x="351" y="608" type="line"/>
      <point x="-21" y="608" type="line"/>
    </contour>
  </outline>
</glyph>
<glyph name="dvTKYa" format="1">
  <advance width="1509"/>
  <outline>
    <component base="dvT"/>
    <component base="dvKYa" xOffset="318"/>
    <contour>
      <point x="1244" y="630" type="move" name="abvmBINDU"/>
    </contour>
    <contour>
      <point x="1269" y="630" type="move" name="abvmCANDRABINDU"/>
    </contour>
    <contour>
      <point x="1529" y="630" type="move" name="abvmCANDRABINDU2"/>
    </contour>
    <contour>
      <point x="1374" y="468" type="move" name="abvmTOP"/>
    </contour>
    <contour>
      <point x="1324" y="5" type="move" name="blwmBOTTOM"/>
    </contour>
  </outline>
</glyph>
<glyph name="dvTSNYa" format="1">
  <advance width="1570"/>
  <outline>
    <component base="dvT.alt1"/>
    <component base="dvS" xOffset="333"/>
    <component base="dvN.alt" xOffset="709"/>
    <component base="dvYa" xOffset="983"/>
    <contour>
      <point x="1305" y="630" type="move" name="abvmBINDU"/>
    </contour>
    <contour>
      <point x="1330" y="630" type="move" name="abvmCANDRABINDU"/>
    </contour>
    <contour>
      <point x="1590" y="630" type="move" name="abvmCANDRABINDU2"/>
    </contour>
    <contour>
      <point x="1435" y="468" type="move" name="abvmTOP"/>
    </contour>
    <contour>
      <point x="1385" y="5" type="move" name="blwmBOTTOM"/>
    </contour>
  </outline>
</glyph>
<glyph name="dvYSha" format="1">
  <advance width="1025"/>
  <outline>
    <contour>
      <point x="302" y="94" type="curve"/>
      <point x="346" y="94"/>
      <point x="396" y="109"/>
      <point x="433" y="143" type="curve"/>
      <point x="385" y="216" type="line"/>
      <point x="337" y="162"/>
      <point x="236" y="151"/>
      <point x="185" y="173" type="curve"/>
      <point x="146" y="207"/>
      <point x="126" y="268"/>
      <point x="117" y="320" type="curve"/>
      <point x="29" y="311" type="line"/>
      <point x="80" y="191"/>
      <point x="192" y="94"/>
    </contour>
    <contour>
      <point x="29" y="311" type="line"/>
      <point x="58" y="269" type="line"/>
      <point x="198" y="276"/>
      <point x="276" y="322"/>
      <point x="276" y="402" type="curve"/>
      <point x="276" y="473"/>
      <point x="214" y="528"/>
      <point x="121" y="578" type="curve"/>
      <point x="70" y="569" type="line"/>
      <point x="157" y="511"/>
      <point x="200" y="481"/>
      <point x="200" y="431" type="curve"/>
      <point x="200" y="380"/>
      <point x="154" y="361"/>
      <point x="42" y="347" type="curve"/>
    </contour>
    <contour>
      <point x="-30" y="588" type="line"/>
      <point x="0" y="538" type="line"/>
      <point x="488" y="538" type="line"/>
      <point x="497" y="558" type="line"/>
      <point x="467" y="608" type="line"/>
      <point x="-21" y="608" type="line"/>
    </contour>
    <component base="dvSha" xOffset="283"/>
    <contour>
      <point x="760" y="630" type="move" name="abvmBINDU"/>
    </contour>
    <contour>
      <point x="748" y="630" type="move" name="abvmCANDRABINDU"/>
    </contour>
    <contour>
      <point x="1045" y="630" type="move" name="abvmCANDRABINDU2"/>
    </contour>
    <contour>
      <point x="890" y="468" type="move" name="abvmTOP"/>
    </contour>
    <contour>
      <point x="840" y="-42" type="move" name="blwmBOTTOM"/>
    </contour>
  </outline>
</glyph>
<glyph name="dvZYa" format="1">
  <advance width="1040"/>
  <outline>
    <component base="dvJYa"/>
    <component base="dvNukta" xOffset="308" yOffset="102"/>
    <contour>
      <point x="775" y="630" type="move" name="abvmBINDU"/>
    </contour>
    <contour>
      <point x="800" y="630" type="move" name="abvmCANDRABINDU"/>
    </contour>
    <contour>
      <point x="1060" y="630" type="move" name="abvmCANDRABINDU2"/>
    </contour>
    <contour>
      <point x="905" y="468" type="move" name="abvmTOP"/>
    </contour>
    <contour>
      <point x="855" y="5" type="move" name="blwmBOTTOM"/>
    </contour>
  </outline>
</glyph>
<glyph name="grAcute.case" format="1">
  <advance width="365"/>
  <outline>
    <contour>
      <point x="19" y="435" type="line"/>
      <point x="54" y="418" type="line"/>
      <point x="164" y="603" type="line"/>
      <point x="164" y="621" type="line"/>
      <point x="143" y="639"/>
      <point x="115" y="653"/>
      <point x="83" y="654" type="curve"/>
    </contour>
    <contour>
      <point x="78" y="343" type="move" name="_left"/>
    </contour>
  </outline>
</glyph>
<glyph name="gravecomb.case" format="1">
  <advance width="0"/>
  <outline>
    <contour>
      <point x="106" y="692" type="curve"/>
      <point x="141" y="749" type="line"/>
      <point x="-84" y="874" type="line"/>
      <point x="-134" y="790" type="line"/>
      <point x="-50" y="758"/>
      <point x="23" y="727"/>
    </contour>
    <contour>
      <point x="-2" y="650" type="move" name="_top"/>
    </contour>
  </outline>
</glyph>
<glyph name="iotaadscript.case" format="1">
  <advance width="265"/>
  <outline>
    <contour>
      <point x="133" y="-225" type="curve"/>
      <point x="157" y="-225"/>
      <point x="189" y="-201"/>
      <point x="199" y="-175" type="curve"/>
      <point x="191" y="-150" type="line"/>
      <point x="99" y="-165" type="line"/>
      <point x="121" y="-189" type="line"/>
      <point x="158" y="-51" type="line"/>
      <point x="144" y="-40" type="line"/>
      <point x="117" y="-40"/>
      <point x="86" y="-44"/>
      <point x="72" y="-51" type="curve"/>
      <point x="77" y="-153" type="line" smooth="yes"/>
      <point x="79" y="-204"/>
      <point x="102" y="-225"/>
    </contour>
    <contour>
      <point x="115" y="0" type="move" name="_bottom"/>
    </contour>
  </outline>
</glyph>
<glyph name="lenis.case" format="1">
  <advance width="365"/>
  <outline>
    <contour>
      <point x="35" y="447" type="curve"/>
      <point x="55" y="418" type="line"/>
      <point x="123" y="452"/>
      <point x="159" y="515"/>
      <point x="159" y="569" type="curve"/>
      <point x="159" y="609"/>
      <point x="132" y="645"/>
      <point x="93" y="654" type="curve"/>
      <point x="58" y="637"/>
      <point x="45" y="613"/>
      <point x="39" y="578" type="curve"/>
      <point x="91" y="538" type="line"/>
      <point x="87" y="503"/>
      <point x="72" y="481"/>
    </contour>
    <contour>
      <point x="78" y="343" type="move" name="_left"/>
    </contour>
  </outline>
</glyph>
<glyph name="lenisacute.case" format="1">
  <advance width="365"/>
  <outline>
    <contour>
      <point x="19" y="435" type="line"/>
      <point x="54" y="418" type="line"/>
      <point x="164" y="603" type="line"/>
      <point x="164" y="621" type="line"/>
      <point x="143" y="639"/>
      <point x="115" y="653"/>
      <point x="83" y="654" type="curve"/>
    </contour>
    <contour>
      <point x="-117" y="447" type="curve"/>
      <point x="-97" y="418" type="line"/>
      <point x="-29" y="452"/>
      <point x="7" y="515"/>
      <point x="7" y="569" type="curve"/>
      <point x="7" y="609"/>
      <point x="-20" y="645"/>
      <point x="-59" y="654" type="curve"/>
      <point x="-94" y="637"/>
      <point x="-107" y="613"/>
      <point x="-113" y="578" type="curve"/>
      <point x="-61" y="538" type="line"/>
      <point x="-65" y="503"/>
      <point x="-80" y="481"/>
    </contour>
    <contour>
      <point x="78" y="343" type="move" name="_left"/>
    </contour>
  </outline>
</glyph>
<glyph name="lenisgrave.case" format="1">
  <advance width="365"/>
  <outline>
    <contour>
      <point x="19" y="603" type="line"/>
      <point x="129" y="418" type="line"/>
      <point x="164" y="435" type="line"/>
      <point x="100" y="654" type="line"/>
      <point x="68" y="653"/>
      <point x="40" y="639"/>
      <point x="19" y="621" type="curve"/>
    </contour>
    <contour>
      <point x="-136" y="447" type="curve"/>
      <point x="-116" y="418" type="line"/>
      <point x="-48" y="452"/>
      <point x="-12" y="515"/>
      <point x="-12" y="569" type="curve"/>
      <point x="-12" y="609"/>
      <point x="-39" y="645"/>
      <point x="-78" y="654" type="curve"/>
      <point x="-113" y="637"/>
      <point x="-126" y="613"/>
      <point x="-132" y="578" type="curve"/>
      <point x="-80" y="538" type="line"/>
      <point x="-84" y="503"/>
      <point x="-99" y="481"/>
    </contour>
    <contour>
      <point x="78" y="343" type="move" name="_left"/>
    </contour>
  </outline>
</glyph>
<glyph name="lenistilde.case" format="1">
  <advance width="365"/>
  <outline>
    <contour>
      <point x="123" y="542" type="curve"/>
      <point x="167" y="542"/>
      <point x="192" y="575"/>
      <point x="205" y="648" type="curve"/>
      <point x="177" y="658" type="line"/>
      <point x="152" y="615" type="line"/>
      <point x="110" y="599"/>
      <point x="23" y="671"/>
      <point x="-42" y="671" type="curve"/>
      <point x="-86" y="671"/>
      <point x="-111" y="638"/>
      <point x="-124" y="565" type="curve"/>
      <point x="-96" y="553" type="line"/>
      <point x="-72" y="594" type="line"/>
      <point x="-29" y="615"/>
      <point x="58" y="542"/>
    </contour>
    <contour>
      <point x="-25" y="322" type="curve"/>
      <point x="-5" y="293" type="line"/>
      <point x="63" y="327"/>
      <point x="99" y="390"/>
      <point x="99" y="444" type="curve"/>
      <point x="99" y="484"/>
      <point x="72" y="520"/>
      <point x="33" y="529" type="curve"/>
      <point x="-2" y="512"/>
      <point x="-15" y="488"/>
      <point x="-21" y="453" type="curve"/>
      <point x="31" y="413" type="line"/>
      <point x="27" y="378"/>
      <point x="12" y="356"/>
    </contour>
    <contour>
      <point x="78" y="343" type="move" name="_left"/>
    </contour>
  </outline>
</glyph>
